# xmcd
#
# Track frame offsets:
#   150
#   16432
#   27195
#   42610
#   61379
#   75028
#   87289
#   107547
#   122031
#   136600
#   152092
#   166937
#   180733
#   196959
#
# Disc length: 2780 seconds
#
# Revision: 0
# Processed by: cddbd v1.5.1PL0 Copyright (c) Steve Scherf et al.
# Submitted via: uFREEDB ActiveX Control 1.5
#
DISCID=a50ada0e
DTITLE=O melhor do bailão - 1
DYEAR=1900
DGENRE=Country
TTITLE0=Onde você foi
TTITLE1=Schtat  lobann
TTITLE2=Saudade
TTITLE3=O conquistador
TTITLE4=Beijo doce
TTITLE5=Me ama ou me deixa
TTITLE6=Vou dar um tempo
TTITLE7=Garota do baile
TTITLE8=Morena vem
TTITLE9=Me toque um dobradão
TTITLE10=Ontem chorei de saudade
TTITLE11=Molhada de amor
TTITLE12=Garota linda
TTITLE13=Bailes do interior
EXTD=
EXTT0=
EXTT1=
EXTT2=
EXTT3=
EXTT4=
EXTT5=
EXTT6=
EXTT7=
EXTT8=
EXTT9=
EXTT10=
EXTT11=
EXTT12=
EXTT13=
PLAYORDER=
